<svg width="242" height="97" viewBox="0 0 242 97" fill="white" xmlns="http://www.w3.org/2000/svg">
<path d="M101.617 42.9441H98.2003V11L122.207 36.0497V12.287H125.623V44.323L101.617 19.2733V42.9441Z"/>
<path d="M146.935 36.5553L149.705 38.0721C149.151 39.1292 148.32 40.2783 147.351 41.1516C145.596 42.7143 143.427 43.4957 140.98 43.4957C136.363 43.4957 131.515 40.6 131.515 33.5217C131.515 27.8224 135.024 23.4099 140.795 23.4099C144.535 23.4099 146.889 25.2485 148.043 26.9031C149.244 28.6037 149.936 31.5453 149.844 34.0733H134.932C134.978 38.0261 137.702 40.554 141.026 40.554C142.596 40.554 143.842 40.0944 144.95 39.1752C145.827 38.4398 146.52 37.4745 146.935 36.5553ZM135.163 31.3155H146.427C145.873 28.328 143.611 26.3516 140.795 26.3516C137.979 26.3516 135.671 28.4658 135.163 31.3155Z"/>
<path d="M161.683 26.9031H158.359V42.9441H155.035V26.9031H153.004V23.8696H155.035V16.9752H158.359V23.8696H161.683V26.9031Z"/>
<path d="M173.773 43.4957C167.956 43.4957 163.616 39.2671 163.616 33.4758C163.616 27.6845 167.909 23.4099 173.773 23.4099C179.636 23.4099 183.929 27.6845 183.929 33.4758C183.929 39.2671 179.59 43.4957 173.773 43.4957ZM173.773 26.3516C170.264 26.3516 167.032 28.8335 167.032 33.4758C167.032 38.164 170.356 40.554 173.773 40.554C177.235 40.554 180.513 38.118 180.513 33.4758C180.513 28.7876 177.281 26.3516 173.773 26.3516Z"/>
<path d="M97 53.6534H105.726L113.112 72.3143L120.591 53.6534H129.271L116.159 84.3106H109.927L97 53.6534Z"/>
<path d="M131.82 63.7652H139.207V84.3106H131.82V63.7652ZM131.358 55.2161C131.358 52.918 133.205 51.0795 135.513 51.0795C137.822 51.0795 139.668 52.918 139.668 55.2161C139.668 57.5143 137.822 59.3528 135.513 59.3528C133.205 59.3528 131.358 57.5143 131.358 55.2161Z"/>
<path d="M144.218 84.3106V63.7652H151.605V67.1205C152.344 65.7416 153.405 64.8224 154.513 64.2708C155.621 63.6733 156.96 63.4435 158.345 63.4435C158.53 63.4435 158.853 63.4894 159.823 63.5354V70.4758C159.453 70.2919 158.438 69.7404 156.637 69.7404C155.668 69.7404 154.329 69.8783 153.267 70.8435C151.697 72.2683 151.605 74.4286 151.605 75.5317V84.3106H144.218Z"/>
<path d="M176.158 69.7863H171.957V84.3106H164.57V69.7863H162.215V63.7652H164.57V57.0087H171.957V63.7652H176.158V69.7863Z"/>
<path d="M178.934 63.7652H186.32V75.2559C186.32 76.0832 186.459 77.3702 187.428 78.2435C188.167 78.887 189.136 79.0248 190.014 79.0248C190.937 79.0248 191.814 78.9329 192.645 78.1516C193.568 77.2323 193.707 76.1752 193.707 75.2559V63.7652H201.094V76.5888C201.094 78.3354 200.955 80.2199 199.108 82.1044C196.569 84.7242 193.014 85 190.198 85C187.105 85 183.319 84.6783 180.873 82.0584C179.303 80.4037 178.934 78.5652 178.934 76.5888V63.7652Z"/>
<path d="M222.139 65.7416V63.7652H229.525V84.3106H222.139V82.0584C220.43 84.4025 217.753 85 215.721 85C213.505 85 210.781 84.3565 208.288 81.7366C206.303 79.6224 205.334 77.2783 205.334 74.1988C205.334 70.3379 206.857 67.6261 208.519 65.9714C210.274 64.2248 212.997 63.0758 215.952 63.0758C219.276 63.0758 221.261 64.7764 222.139 65.7416ZM217.614 69.3267C216.691 69.3267 215.444 69.6484 214.382 70.6596C213.367 71.6248 212.905 72.9578 212.905 74.0149C212.905 75.2099 213.413 76.4969 214.336 77.3702C215.121 78.1056 216.414 78.7491 217.66 78.7491C218.861 78.7491 220.061 78.2435 220.984 77.3242C221.631 76.6807 222.369 75.6696 222.369 74.0149C222.369 73.0497 222.092 71.7627 220.938 70.6596C220.246 70.0161 219.184 69.3267 217.614 69.3267Z"/>
<path d="M234.613 50.8037H242V84.3106H234.613V50.8037Z"/>
<g clip-path="url(#clip0_5_160)">
<path fill-rule="evenodd" clip-rule="evenodd" d="M36 57H48.8C49.4 57 49.9 57.6 49.7 58.2C49.1 60.5 47.4 64.3 42 64C39.3 63.8 35.5 62.7 35 58C35 57.4 35.4 57 36 57ZM71.5 57C71.5 60.9 68.4 64 64.5 64C60.6 64 57.5 60.9 57.5 57C57.5 53.1 60.6 50 64.5 50C68.3 50 71.5 53.1 71.5 57ZM20.5 64C24.4 64 27.5 60.9 27.5 57C27.5 53.1 24.4 50 20.5 50C16.6 50 13.5 53.1 13.5 57C13.5 60.9 16.6 64 20.5 64ZM6.60001 70.7C1.70001 58.6 3.30001 45.9 9.30001 36L38.7 17.2C40 17.1 41.4 17 42.8 17H44.3C65 17 81.8 33.8 81.8 54.5C81.8 60 80.7 65.4 78.6 70.5C76.5 75.6 73.4 80.2 69.5 84.1C65.6 88 61 91.1 55.9 93.2C50.8 95.3 45.4 96.4 39.9 96.4H2.40001C1.90001 96.4 1.40001 96.2 1.00001 96C0.600012 95.8 0.300012 95.3 0.100012 94.8C-0.0999878 94.3 -0.0999878 93.8 0.100012 93.3C0.200012 92.8 0.500012 92.4 0.900012 92.1L10.4 84.5C10.8 84.2 11.1 83.7 11.2 83.2C11.3 82.7 11.3 82.2 11.1 81.7L6.60001 70.7Z"/>
<path fill-rule="evenodd" clip-rule="evenodd" d="M31.8 15.8L37.6 12.1C38.3 11.7 39.2 11.9 39.7 12.5C40.1 13.2 39.9 14.1 39.3 14.6L10.4 33.2L8.80003 30.7C4.90003 24.3 6.70003 16 13 12C19.3 8.00001 27.6 9.60001 31.8 15.8Z"/>
</g>
<defs>
<clipPath id="clip0_5_160">
<rect width="81.7" height="96.3"/>
</clipPath>
</defs>
</svg>
