<svg width="350" height="350" viewBox="0 0 350 350" fill="none" xmlns="http://www.w3.org/2000/svg">
<path d="M239.4 270.9C239.4 270.9 273 268.8 296.1 227.5C319.2 186.2 315 123.2 286.3 88.2C257.6 53.2 212.8 41.3 170.1 52.5C149.296 57.953 135.422 72.1 123.431 89.166C112.987 104.034 101.241 118.356 85.4349 127.764C69.7829 137.074 53.69 144.508 45.787 162.204C26.551 205.296 40.5999 255.416 86.0999 272.3C135.1 290.5 217 280.7 239.4 270.9Z" fill="#8D7DFF"/>
<path opacity="0.7" d="M239.4 270.9C239.4 270.9 273 268.8 296.1 227.5C319.2 186.2 315 123.2 286.3 88.2C257.6 53.2 212.8 41.3 170.1 52.5C149.296 57.953 135.422 72.1 123.431 89.166C112.987 104.034 101.241 118.356 85.4349 127.764C69.7829 137.074 53.69 144.508 45.787 162.204C26.551 205.296 40.5999 255.416 86.0999 272.3C135.1 290.5 217 280.7 239.4 270.9Z" fill="white"/>
<path d="M56.679 158.41V164.619" stroke="#263238" stroke-linecap="round" stroke-linejoin="round"/>
<path d="M59.7871 161.518H53.5781" stroke="#263238" stroke-linecap="round" stroke-linejoin="round"/>
<path d="M268.548 105.21V111.419" stroke="#263238" stroke-linecap="round" stroke-linejoin="round"/>
<path d="M271.649 108.318H265.44" stroke="#263238" stroke-linecap="round" stroke-linejoin="round"/>
<path d="M180.348 57.148V63.357" stroke="#263238" stroke-linecap="round" stroke-linejoin="round"/>
<path d="M183.449 60.249H177.24" stroke="#263238" stroke-linecap="round" stroke-linejoin="round"/>
<path d="M78.1479 227.948V234.157" stroke="#263238" stroke-linecap="round" stroke-linejoin="round"/>
<path d="M81.249 231.049H75.04" stroke="#263238" stroke-linecap="round" stroke-linejoin="round"/>
<path d="M265.769 82.831C265.771 83.8475 265.47 84.8416 264.907 85.6874C264.343 86.5333 263.541 87.1929 262.602 87.5829C261.664 87.9728 260.63 88.0756 259.633 87.8781C258.636 87.6807 257.72 87.1919 257.001 86.4736C256.281 85.7553 255.791 84.8398 255.592 83.8429C255.394 82.8461 255.495 81.8126 255.884 80.8734C256.272 79.9341 256.931 79.1313 257.776 78.5664C258.621 78.0015 259.615 77.7 260.631 77.7C261.993 77.7 263.298 78.2404 264.262 79.2024C265.225 80.1645 265.767 81.4695 265.769 82.831Z" stroke="#263238" stroke-linecap="round" stroke-linejoin="round"/>
<path d="M46.0643 206.112C48.6823 205.027 49.9256 202.026 48.8411 199.408C47.7567 196.79 44.7552 195.546 42.1372 196.631C39.5191 197.715 38.2758 200.717 39.3603 203.335C40.4447 205.953 43.4462 207.196 46.0643 206.112Z" stroke="#263238" stroke-linecap="round" stroke-linejoin="round"/>
<path d="M289.1 135.331C289.113 135.492 289.092 135.653 289.039 135.805C288.986 135.958 288.902 136.097 288.793 136.215C288.683 136.334 288.55 136.428 288.403 136.493C288.255 136.557 288.096 136.59 287.935 136.59C287.773 136.59 287.614 136.557 287.466 136.493C287.319 136.428 287.186 136.334 287.077 136.215C286.967 136.097 286.883 135.958 286.83 135.805C286.778 135.653 286.757 135.492 286.769 135.331C286.792 135.037 286.925 134.763 287.141 134.563C287.357 134.363 287.64 134.252 287.935 134.252C288.229 134.252 288.513 134.363 288.729 134.563C288.945 134.763 289.077 135.037 289.1 135.331Z" stroke="#263238" stroke-linecap="round" stroke-linejoin="round"/>
<path d="M111.069 118.531C111.07 118.762 111.003 118.989 110.875 119.182C110.748 119.376 110.566 119.526 110.352 119.616C110.139 119.706 109.903 119.73 109.676 119.685C109.449 119.641 109.24 119.53 109.076 119.367C108.912 119.204 108.8 118.996 108.754 118.769C108.708 118.542 108.731 118.306 108.819 118.092C108.908 117.878 109.057 117.695 109.25 117.567C109.442 117.438 109.668 117.369 109.9 117.369C110.209 117.369 110.505 117.491 110.724 117.709C110.943 117.927 111.067 118.222 111.069 118.531Z" stroke="#263238" stroke-linecap="round" stroke-linejoin="round"/>
<path d="M307.244 187.369V187.334H307.202V187.299C306.229 187.201 296.156 186.34 286.965 191.114C291.025 186.014 292.898 179.512 292.173 173.033C289.954 150.843 269.017 138.145 267.4 137.193V137.2H267.351H267.302C265.685 138.152 244.748 150.85 242.529 173.04C242.055 177.335 242.716 181.68 244.447 185.64C232.659 178.591 218.911 179.781 217.644 179.907V179.865V179.914H217.595V179.949C216.972 181.384 209.104 200.305 218.554 216.384C227.01 230.762 244.741 226.961 249.557 225.61C253.603 229.859 260.981 239.533 264.257 256.039H259.665L261.8 287.343H272.132L274.4 256.081H268.989C271.469 244.893 275.94 234.242 282.191 224.637C287.014 225.841 300.062 227.871 306.495 216.937C314.139 203.882 307.755 188.538 307.244 187.369ZM267.022 187.25L256.102 172.081C256.079 172.05 256.062 172.014 256.053 171.977C256.043 171.939 256.042 171.9 256.047 171.861C256.053 171.823 256.067 171.786 256.087 171.753C256.107 171.72 256.134 171.691 256.165 171.668C256.229 171.621 256.309 171.601 256.388 171.613C256.467 171.625 256.538 171.667 256.585 171.731L267.043 186.256V170.891L256.123 155.729C256.076 155.665 256.056 155.585 256.068 155.506C256.08 155.427 256.122 155.356 256.186 155.309C256.252 155.264 256.332 155.247 256.41 155.26C256.488 155.273 256.559 155.316 256.606 155.379L267.064 169.904V147.504C267.064 147.465 267.072 147.427 267.086 147.392C267.101 147.356 267.123 147.323 267.15 147.296C267.177 147.269 267.21 147.247 267.246 147.232C267.281 147.218 267.319 147.21 267.358 147.21C267.436 147.21 267.511 147.241 267.566 147.296C267.621 147.351 267.652 147.426 267.652 147.504V169.127L278.992 154.749C279.04 154.687 279.111 154.646 279.189 154.636C279.268 154.627 279.346 154.648 279.409 154.697C279.471 154.745 279.511 154.816 279.521 154.894C279.531 154.972 279.509 155.051 279.461 155.113L267.652 170.086V185.486L278.992 171.101C279.042 171.039 279.113 171 279.192 170.99C279.271 170.981 279.35 171.003 279.412 171.052C279.442 171.076 279.468 171.106 279.487 171.139C279.506 171.173 279.518 171.21 279.522 171.248C279.527 171.287 279.524 171.326 279.513 171.363C279.503 171.4 279.485 171.435 279.461 171.465L267.652 186.445V199.5L278.992 185.122C279.04 185.06 279.111 185.019 279.189 185.01C279.268 185 279.346 185.021 279.409 185.07C279.471 185.118 279.511 185.189 279.521 185.267C279.531 185.345 279.509 185.424 279.461 185.486L267.652 200.459V200.746H266.7L256.137 186.046C256.09 185.982 256.07 185.902 256.082 185.823C256.094 185.744 256.136 185.673 256.2 185.626C256.266 185.581 256.346 185.564 256.424 185.577C256.502 185.59 256.573 185.633 256.62 185.696L267.043 200.2V187.222L267.022 187.25ZM249.669 224.273L248.598 222.803L233.198 218.519C233.137 218.498 233.085 218.455 233.054 218.398C233.023 218.341 233.014 218.274 233.03 218.211C233.048 218.147 233.09 218.093 233.148 218.06C233.206 218.028 233.274 218.019 233.338 218.036L248.094 222.152L241.675 213.374L226.275 209.09C226.211 209.072 226.157 209.03 226.124 208.972C226.092 208.914 226.083 208.846 226.1 208.782C226.121 208.72 226.164 208.669 226.221 208.638C226.278 208.607 226.345 208.598 226.408 208.614L241.171 212.73L233.583 202.342L218.183 198.058C218.152 198.05 218.123 198.036 218.097 198.016C218.072 197.996 218.05 197.972 218.035 197.944C218.019 197.915 218.009 197.884 218.006 197.852C218.002 197.82 218.006 197.788 218.015 197.757C218.023 197.726 218.037 197.696 218.057 197.67C218.077 197.645 218.101 197.623 218.129 197.607C218.157 197.59 218.188 197.58 218.22 197.576C218.252 197.571 218.285 197.574 218.316 197.582L233.079 201.698L222.404 187.096C222.365 187.042 222.35 186.975 222.36 186.909C222.371 186.844 222.406 186.785 222.46 186.746C222.486 186.726 222.515 186.712 222.547 186.704C222.579 186.696 222.612 186.694 222.644 186.7C222.676 186.705 222.707 186.717 222.734 186.734C222.761 186.752 222.785 186.775 222.803 186.802L233.849 201.908L233.8 186.935C233.802 186.869 233.829 186.806 233.876 186.759C233.923 186.712 233.986 186.685 234.052 186.683C234.118 186.685 234.18 186.712 234.226 186.759C234.271 186.806 234.297 186.869 234.297 186.935L234.409 202.566L241.997 212.947L241.885 197.974C241.879 197.938 241.881 197.901 241.891 197.866C241.9 197.83 241.917 197.797 241.941 197.769C241.965 197.741 241.994 197.719 242.027 197.704C242.061 197.688 242.097 197.68 242.134 197.68C242.17 197.68 242.206 197.688 242.24 197.704C242.273 197.719 242.302 197.741 242.326 197.769C242.35 197.797 242.367 197.83 242.377 197.866C242.386 197.901 242.388 197.938 242.382 197.974L242.494 213.612L248.906 222.383L248.794 207.41C248.796 207.344 248.823 207.282 248.87 207.236C248.917 207.191 248.98 207.165 249.046 207.165C249.111 207.165 249.173 207.191 249.219 207.237C249.265 207.283 249.291 207.345 249.291 207.41L249.403 223.048L250.32 224.301L249.669 224.273ZM251.419 224.273C253.659 220.864 260.127 209.671 256.263 198.898C259.267 200.88 262.481 202.523 265.846 203.798V252.406C262.297 237.51 255.619 228.606 251.545 224.273H251.419ZM268.219 249.41V204.022C271.422 202.859 274.493 201.362 277.382 199.556C271.215 209.44 278.124 220.857 279.944 223.552C274.763 231.536 270.811 240.252 268.219 249.41ZM306.663 202.027L294.196 205.527L288.036 213.927L300.013 210.588C300.039 210.58 300.066 210.576 300.093 210.579C300.12 210.582 300.146 210.59 300.17 210.603C300.193 210.616 300.214 210.634 300.231 210.655C300.247 210.677 300.259 210.702 300.265 210.728C300.278 210.779 300.271 210.833 300.245 210.879C300.218 210.925 300.176 210.958 300.125 210.973L287.658 214.473L282.45 221.592L294.427 218.253C294.478 218.24 294.532 218.247 294.578 218.273C294.624 218.3 294.657 218.342 294.672 218.393C294.685 218.445 294.678 218.5 294.652 218.547C294.626 218.594 294.583 218.629 294.532 218.645L282.065 222.145L281.407 223.041C281.288 222.971 281.176 222.908 281.064 222.831L281.435 222.32L281.533 209.636C281.528 209.607 281.529 209.577 281.536 209.548C281.543 209.519 281.557 209.492 281.576 209.469C281.595 209.446 281.619 209.427 281.646 209.415C281.673 209.402 281.703 209.395 281.733 209.395C281.762 209.395 281.792 209.402 281.819 209.415C281.846 209.427 281.87 209.446 281.889 209.469C281.908 209.492 281.922 209.519 281.929 209.548C281.937 209.577 281.938 209.607 281.932 209.636L281.848 221.788L287 214.634L287.091 201.95C287.091 201.924 287.096 201.898 287.107 201.873C287.117 201.849 287.132 201.827 287.151 201.809C287.17 201.791 287.192 201.776 287.217 201.767C287.241 201.757 287.268 201.753 287.294 201.754C287.321 201.754 287.347 201.759 287.372 201.769C287.396 201.78 287.419 201.795 287.438 201.813C287.456 201.832 287.471 201.855 287.482 201.879C287.492 201.904 287.497 201.93 287.497 201.957L287.406 214.102L293.566 205.702L293.657 193.018C293.657 192.991 293.662 192.965 293.672 192.94C293.683 192.916 293.698 192.893 293.716 192.874C293.735 192.856 293.758 192.841 293.782 192.83C293.807 192.82 293.833 192.815 293.86 192.815C293.886 192.815 293.912 192.82 293.937 192.831C293.961 192.841 293.983 192.856 294.001 192.875C294.019 192.894 294.034 192.916 294.043 192.941C294.053 192.965 294.057 192.992 294.056 193.018L293.972 205.163L302.932 192.906C302.964 192.864 303.011 192.836 303.064 192.828C303.116 192.82 303.169 192.833 303.212 192.864C303.234 192.879 303.252 192.899 303.266 192.921C303.28 192.944 303.289 192.969 303.293 192.995C303.297 193.021 303.295 193.048 303.289 193.074C303.282 193.099 303.27 193.123 303.254 193.144L294.595 204.995L306.572 201.656C306.623 201.643 306.677 201.65 306.723 201.676C306.769 201.703 306.802 201.745 306.817 201.796C306.823 201.821 306.824 201.848 306.819 201.873C306.815 201.899 306.805 201.924 306.791 201.945C306.776 201.967 306.757 201.985 306.735 201.999C306.713 202.014 306.689 202.023 306.663 202.027Z" fill="#263238"/>
<path d="M238.623 78.456H130.543C127.933 78.456 125.818 80.5715 125.818 83.181V285.544C125.818 288.154 127.933 290.269 130.543 290.269H238.623C241.232 290.269 243.348 288.154 243.348 285.544V83.181C243.348 80.5715 241.232 78.456 238.623 78.456Z" fill="#263238" stroke="#263238" stroke-linecap="round" stroke-linejoin="round"/>
<path d="M234.892 78.456H126.812C124.202 78.456 122.087 80.5715 122.087 83.181V285.544C122.087 288.154 124.202 290.269 126.812 290.269H234.892C237.501 290.269 239.617 288.154 239.617 285.544V83.181C239.617 80.5715 237.501 78.456 234.892 78.456Z" fill="white"/>
<mask id="mask0_1_598" style="mask-type:luminance" maskUnits="userSpaceOnUse" x="122" y="78" width="118" height="213">
<path d="M234.892 78.456H126.812C124.202 78.456 122.087 80.5715 122.087 83.181V285.544C122.087 288.154 124.202 290.269 126.812 290.269H234.892C237.501 290.269 239.617 288.154 239.617 285.544V83.181C239.617 80.5715 237.501 78.456 234.892 78.456Z" fill="white"/>
</mask>
<g mask="url(#mask0_1_598)">
<path d="M239.617 158.382L136.269 290.276H234.899C236.151 290.274 237.351 289.776 238.235 288.89C239.12 288.004 239.617 286.803 239.617 285.551V158.382Z" fill="#8D7DFF"/>
<path opacity="0.5" d="M239.617 158.382L136.269 290.276H234.899C236.151 290.274 237.351 289.776 238.235 288.89C239.12 288.004 239.617 286.803 239.617 285.551V158.382Z" fill="white"/>
</g>
<path d="M234.892 78.456H126.812C124.202 78.456 122.087 80.5715 122.087 83.181V285.544C122.087 288.154 124.202 290.269 126.812 290.269H234.892C237.501 290.269 239.617 288.154 239.617 285.544V83.181C239.617 80.5715 237.501 78.456 234.892 78.456Z" stroke="#263238" stroke-linecap="round" stroke-linejoin="round"/>
<path d="M189 91.112H174.37C173.971 91.112 173.588 90.9534 173.306 90.6712C173.024 90.3889 172.865 90.0061 172.865 89.607C172.865 89.4097 172.904 89.2143 172.98 89.0321C173.055 88.8499 173.166 88.6845 173.306 88.5453C173.446 88.4061 173.612 88.2959 173.795 88.221C173.977 88.1461 174.173 88.1081 174.37 88.109H189C189.397 88.109 189.778 88.2668 190.059 88.5478C190.34 88.8287 190.498 89.2097 190.498 89.607C190.499 89.8043 190.461 89.9999 190.386 90.1824C190.311 90.365 190.201 90.5309 190.062 90.6708C189.923 90.8106 189.757 90.9216 189.575 90.9973C189.393 91.073 189.197 91.112 189 91.112Z" fill="#263238" stroke="#263238" stroke-linecap="round" stroke-linejoin="round"/>
<path d="M232.19 271.341H129.5V91.287H153.839L156.576 93.555C157.531 94.3505 158.735 94.7864 159.978 94.787H202.923C204.212 94.7818 205.456 94.3092 206.423 93.457L208.901 91.287H232.19V271.341Z" fill="#263238" stroke="#263238" stroke-linecap="round" stroke-linejoin="round"/>
<path d="M148.778 232.519H212.926" stroke="white" stroke-linecap="round" stroke-linejoin="round"/>
<path d="M148.778 240.961H212.926" stroke="white" stroke-linecap="round" stroke-linejoin="round"/>
<path d="M148.778 249.403H212.926" stroke="white" stroke-linecap="round" stroke-linejoin="round"/>
<path d="M154.7 154.14C150.668 159.981 148.711 167.005 149.139 174.089C149.568 181.174 152.358 187.91 157.065 193.223C161.771 198.535 168.122 202.117 175.103 203.397C182.084 204.676 189.293 203.58 195.578 200.282C201.862 196.983 206.86 191.675 209.774 185.203C212.687 178.731 213.347 171.469 211.65 164.578C209.952 157.687 205.993 151.563 200.407 147.185C194.821 142.807 187.928 140.428 180.831 140.427C178.885 140.427 176.942 140.603 175.028 140.952" stroke="white" stroke-linecap="round" stroke-linejoin="round"/>
<path d="M160.111 148.141C159.044 149.064 158.039 150.055 157.101 151.109" stroke="white" stroke-linecap="round" stroke-linejoin="round"/>
<path d="M205.634 182.733C211.463 169.047 205.094 153.226 191.407 147.396C177.721 141.567 161.9 147.936 156.07 161.623C150.241 175.31 156.611 191.131 170.297 196.96C183.984 202.789 199.805 196.42 205.634 182.733Z" fill="#8D7DFF"/>
<path d="M168.413 169.379L178.633 180.992L195.349 157.311" stroke="#263238" stroke-width="6" stroke-linecap="round" stroke-linejoin="round"/>
<path d="M206.451 93.457C205.484 94.3092 204.24 94.7818 202.951 94.787H159.992C158.749 94.7864 157.545 94.3505 156.59 93.555L153.853 91.287H129.5V109.704H232.19V91.287H208.929L206.451 93.457Z" fill="#8D7DFF" stroke="#263238" stroke-linecap="round" stroke-linejoin="round"/>
<path d="M184.135 276.892C184.136 276.429 184 275.976 183.744 275.59C183.487 275.205 183.122 274.904 182.695 274.726C182.267 274.548 181.797 274.502 181.343 274.592C180.888 274.682 180.471 274.904 180.144 275.232C179.816 275.559 179.594 275.976 179.504 276.431C179.414 276.885 179.46 277.355 179.638 277.783C179.816 278.21 180.117 278.576 180.502 278.832C180.888 279.088 181.341 279.224 181.804 279.223C182.422 279.221 183.013 278.975 183.45 278.538C183.887 278.101 184.133 277.51 184.135 276.892Z" fill="#263238" stroke="#263238" stroke-linecap="round" stroke-linejoin="round"/>
<path d="M92.806 205.282L83.65 287.182C83.65 287.182 76.937 293.02 77.525 295.379C78.113 297.738 85.862 293.979 86.933 292.033C87.6931 290.413 88.2345 288.699 88.543 286.937L107.821 225.337L122.647 291.396C122.647 291.396 128.947 296.569 132.447 296.394C135.947 296.219 134.701 294.84 132.706 292.313C130.711 289.786 126.196 288.344 126.196 288.344L123.97 203.203L92.806 205.282Z" fill="#263238" stroke="#263238" stroke-linecap="round" stroke-linejoin="round"/>
<path d="M123.468 201.77L92.7073 203.334L92.9205 207.529L123.681 205.965L123.468 201.77Z" fill="#263238" stroke="#263238" stroke-linecap="round" stroke-linejoin="round"/>
<path d="M111.79 204.435C111.839 205.478 110.516 206.388 108.822 206.479C107.128 206.57 105.7 205.8 105.7 204.75C105.7 203.7 106.981 202.797 108.668 202.713C110.355 202.629 111.734 203.399 111.79 204.435Z" fill="white"/>
<path d="M106.519 161.399L94.9551 164.787L96.3901 203.441L123.515 202.769L120.085 162.813L106.519 161.399Z" fill="white" stroke="#263238" stroke-linecap="round" stroke-linejoin="round"/>
<path d="M101.458 161.833L99.904 227.794L85.176 220.661L91.651 199.829L87.234 164.654L101.458 161.833Z" fill="#8D7DFF" stroke="#263238" stroke-linecap="round" stroke-linejoin="round"/>
<path d="M113.169 161.238L121.401 226.702L135.338 218.113L126.784 198.044L127.61 162.603L113.169 161.238Z" fill="#8D7DFF" stroke="#263238" stroke-linecap="round" stroke-linejoin="round"/>
<path d="M104.405 169.218L106.701 172.956L104.867 198.982L109.221 204.134L111.475 197.946L107.989 173.005L110.138 169.393L107.016 165.347L104.405 169.218Z" fill="#263238" stroke="#263238" stroke-linecap="round" stroke-linejoin="round"/>
<path d="M107.247 168.721L102.914 171.983L99.4421 163.513L101.395 160.489L112 159.95L114.506 163.331L112.441 171.031L107.247 168.721Z" fill="white" stroke="#263238" stroke-linecap="round" stroke-linejoin="round"/>
<path d="M102.277 157.234L103.25 162.617L107.247 168.721L110.908 161.525L110.677 156.982L102.277 157.234Z" fill="white" stroke="#263238" stroke-linecap="round" stroke-linejoin="round"/>
<path d="M87.234 164.654L67.592 188.433L80.647 203.889L85.904 200.473L79.45 187.306L89.082 180.334L87.234 164.654Z" fill="#8D7DFF" stroke="#263238" stroke-linecap="round" stroke-linejoin="round"/>
<path d="M85.9039 200.473L86.6879 202.181L82.2639 204.687L81.6689 203.315L85.9039 200.473Z" fill="white" stroke="#263238" stroke-linecap="round" stroke-linejoin="round"/>
<path d="M86.6881 202.181L91.1961 208.089L89.7121 209.916L88.6341 209.447L86.4501 211.309C86.4501 211.309 84.8541 210.861 84.6511 210.35C84.4481 209.839 82.2851 208.537 82.2361 207.669C82.1871 206.801 82.2361 204.687 82.2361 204.687L86.6881 202.181Z" fill="white" stroke="#263238" stroke-linecap="round" stroke-linejoin="round"/>
<path d="M138.551 167.244C138.817 166.55 138.876 165.794 138.719 165.067C138.397 164.234 137.683 161.35 137.823 160.398C137.963 159.446 139.405 158.06 139.531 156.828C139.657 155.596 139.531 154.469 139.531 153.804C139.543 153.622 139.613 153.449 139.731 153.31C139.849 153.171 140.009 153.073 140.187 153.032C140.364 152.992 140.55 153.009 140.717 153.083C140.884 153.156 141.023 153.281 141.113 153.44C141.813 154.252 142.233 155.085 141.897 155.946C141.668 156.909 141.56 157.896 141.575 158.886C141.575 158.886 142.695 160.433 143.311 161.441C143.927 162.449 143.871 165.088 143.458 166.145C143.073 166.945 142.53 167.66 141.862 168.245L141.932 170.065L138.551 167.244Z" fill="white" stroke="#263238" stroke-linecap="round" stroke-linejoin="round"/>
<path d="M140.595 157.43C140.595 157.43 140.105 158.872 140.966 159.201C141.827 159.53 145.348 160.02 145.383 158.886C145.418 157.752 145.488 157.185 144.921 157.213C144.354 157.241 141.715 157.213 141.715 157.213C141.715 157.213 140.49 157.15 140.595 157.43Z" fill="white" stroke="#263238" stroke-linecap="round" stroke-linejoin="round"/>
<path d="M140.994 164.5C140.994 164.5 140.644 165.571 141.267 165.816C141.89 166.061 144.424 166.432 144.445 165.585C144.466 164.738 144.515 164.318 144.109 164.339C143.703 164.36 141.799 164.339 141.799 164.339C141.799 164.339 140.917 164.276 140.994 164.5Z" fill="white" stroke="#263238" stroke-linecap="round" stroke-linejoin="round"/>
<path d="M140.525 162.211C140.525 162.211 140.119 163.457 140.84 163.744C141.561 164.031 144.494 164.444 144.522 163.478C144.55 162.512 144.606 162.008 144.13 162.029C143.654 162.05 141.456 162.029 141.456 162.029C141.456 162.029 140.434 161.973 140.525 162.211Z" fill="white" stroke="#263238" stroke-linecap="round" stroke-linejoin="round"/>
<path d="M140.252 159.992C140.252 159.992 139.762 161.434 140.63 161.763C141.498 162.092 145.005 162.582 145.04 161.448C145.075 160.314 145.145 159.747 144.578 159.775C144.011 159.803 141.372 159.775 141.372 159.775C141.372 159.775 140.147 159.719 140.252 159.992Z" fill="white" stroke="#263238" stroke-linecap="round" stroke-linejoin="round"/>
<path d="M138.152 168.679L138.698 166.481L142.492 168.742L141.855 171.129L138.152 168.679Z" fill="white" stroke="#263238" stroke-linecap="round" stroke-linejoin="round"/>
<path d="M127.61 162.603L134.876 178.066L138.446 168.119L141.946 171.451L138.362 189.889C138.25 190.457 137.975 190.979 137.57 191.393C137.165 191.806 136.648 192.092 136.083 192.215C135.518 192.339 134.929 192.294 134.389 192.088C133.848 191.881 133.38 191.52 133.042 191.051L127.239 182.952L127.61 162.603Z" fill="#8D7DFF" stroke="#263238" stroke-linecap="round" stroke-linejoin="round"/>
<path d="M98.8962 150.948C98.8962 150.948 97.4262 149.38 97.2372 150.528C97.0482 151.676 97.6432 153.657 98.5672 154.364C99.4912 155.071 100.303 153.902 100.303 153.902L98.8962 150.948Z" fill="white" stroke="#263238" stroke-linecap="round" stroke-linejoin="round"/>
<path d="M112.791 150.241C112.791 150.241 114.086 148.533 114.401 149.653C114.716 150.773 114.31 152.81 113.463 153.608C112.616 154.406 111.685 153.321 111.685 153.321L112.791 150.241Z" fill="white" stroke="#263238" stroke-linecap="round" stroke-linejoin="round"/>
<path d="M99.4841 152.558L98.0841 149.597C96.9573 148.011 96.1774 146.206 95.7951 144.298C95.0951 141.05 96.2501 138.348 97.7201 137.515C98.5463 137.02 99.5217 136.837 100.471 136.997C100.471 136.997 100.751 135.093 105.371 133.497C109.991 131.901 115.017 134.778 114.94 135.786C114.863 136.794 113.631 137.242 113.631 137.242C113.631 137.242 117.229 138.572 115.927 140.273C115.124 141.312 114.085 142.145 112.896 142.702C113.157 143.56 113.37 144.431 113.533 145.313C113.715 146.44 112.7 151.284 112.7 151.284L110.215 144.473L102.417 144.872C102.417 144.872 101.955 148.176 101.129 149.352C100.602 150.245 100.308 151.256 100.275 152.292C100.275 152.292 99.9111 153.538 99.4841 152.558Z" fill="#263238" stroke="#263238" stroke-linecap="round" stroke-linejoin="round"/>
<path d="M100.87 140.252C100.857 142.285 100.709 144.315 100.429 146.328C100.26 147.448 99.6815 148.466 98.8049 149.184C98.8049 149.184 99.7989 153.797 101.059 156.254C102.319 158.711 104.937 160.727 107.576 160.454C110.215 160.181 112.322 157.185 112.574 154.651C112.826 152.117 111.587 142.751 111.587 142.751C111.587 142.751 103.341 144.2 100.87 140.252Z" fill="white" stroke="#263238" stroke-linecap="round" stroke-linejoin="round"/>
<path d="M101.57 149.723C101.99 149.474 102.465 149.332 102.953 149.307C103.441 149.283 103.927 149.377 104.37 149.583" stroke="#263238" stroke-linecap="round" stroke-linejoin="round"/>
<path d="M101.458 147.623C101.458 147.623 101.619 146.223 103.957 146.097" stroke="#263238" stroke-linecap="round" stroke-linejoin="round"/>
<path d="M107.681 145.789C108.21 145.572 108.795 145.531 109.349 145.671C109.903 145.81 110.398 146.124 110.761 146.566" stroke="#263238" stroke-linecap="round" stroke-linejoin="round"/>
<path d="M106.862 148.05C106.862 148.05 107.233 150.85 107.254 151.193C107.275 151.536 108.444 151.599 108.129 152.313C107.814 153.027 106.799 153.783 105.952 153.244" stroke="#263238" stroke-linecap="round" stroke-linejoin="round"/>
<path d="M108.178 155.589C108.178 155.589 107.289 156.45 105.497 155.722" stroke="#263238" stroke-linecap="round" stroke-linejoin="round"/>
<path d="M109.949 148.946C109.949 149.464 109.732 149.898 109.41 149.912C109.088 149.926 108.808 149.52 108.78 149.009C108.752 148.498 108.997 148.064 109.319 148.043C109.641 148.022 109.9 148.435 109.949 148.946Z" fill="#263238"/>
</svg>
